<?xml version="1.0" standalone="no"?>
<!DOCTYPE svg PUBLIC "-//W3C//DTD SVG 20010904//EN"
 "http://www.w3.org/TR/2001/REC-SVG-20010904/DTD/svg10.dtd">
<svg version="1.0" xmlns="http://www.w3.org/2000/svg"
 width="300.000000pt" height="300.000000pt" viewBox="0 0 300.000000 300.000000"
 preserveAspectRatio="xMidYMid meet">
<metadata>
Created by potrace 1.10, written by Peter Selinger 2001-2011
</metadata>
<g transform="translate(0.000000,300.000000) scale(0.100000,-0.100000)"
fill="#000000" stroke="none">
<path d="M1824 2963 c4 -21 18 -81 31 -135 21 -84 40 -182 50 -255 5 -39 -8
-25 -60 60 -54 87 -113 138 -225 193 -151 73 -181 85 -259 100 -120 24 -313
15 -437 -20 -102 -28 -282 -115 -344 -167 -100 -83 -200 -184 -215 -218 -8
-20 -27 -57 -40 -83 -36 -68 -83 -226 -95 -322 -12 -95 -11 -272 1 -241 5 13
8 -2 8 -42 1 -35 5 -63 11 -63 7 0 10 -213 10 -620 0 -407 -3 -620 -10 -620
-5 0 -10 -7 -10 -16 0 -8 -4 -13 -9 -9 -5 3 -12 -5 -14 -17 -2 -13 -5 255 -6
596 -1 549 1 617 14 606 9 -8 14 -28 14 -54 l-2 -41 -7 40 c-6 30 -7 19 -7
-46 0 -62 3 -86 12 -86 10 0 13 30 13 111 1 72 -2 104 -8 91 -7 -17 -9 -15 -9
13 -1 24 3 31 12 26 9 -6 9 -4 0 7 -7 7 -13 30 -13 52 0 21 -4 36 -9 33 -5 -3
-7 -34 -5 -69 3 -44 2 -56 -5 -42 -6 13 -10 -215 -10 -632 -1 -428 -4 -653
-11 -653 -5 0 -10 -6 -10 -13 0 -7 -9 -19 -20 -27 -11 -8 -21 -24 -22 -35 -1
-11 -5 27 -8 85 l-6 105 -4 -120 -4 -120 -6 115 c-4 77 -6 23 -6 -160 0 -173
2 -236 6 -170 l6 105 2 -101 c2 -84 5 -101 18 -101 14 0 15 13 10 96 -3 53 -8
115 -12 139 -5 36 -1 53 27 107 18 36 36 65 40 65 4 0 19 20 33 44 36 62 116
140 180 176 64 37 76 49 71 75 -2 11 -4 25 -4 31 -1 6 -23 35 -51 64 -27 29
-52 62 -55 74 -13 44 -28 76 -34 72 -4 -3 -7 13 -7 35 -1 21 2 39 6 39 4 0 15
19 24 42 25 67 58 99 108 105 24 4 48 13 55 22 7 9 13 12 13 7 0 -6 11 5 25
24 14 19 25 30 25 24 0 -5 4 -4 8 2 4 6 20 18 36 26 28 15 32 14 68 -9 20 -14
47 -41 58 -60 11 -19 29 -37 40 -40 22 -6 27 -18 36 -80 3 -26 10 -59 16 -72
12 -33 -3 -46 -39 -34 -15 6 -44 9 -63 6 -19 -2 -49 4 -67 12 -17 8 -68 18
-112 20 -69 4 -82 2 -89 -13 -5 -9 -7 -23 -5 -30 6 -16 51 -36 76 -33 9 1 17
-4 17 -11 0 -9 3 -9 10 2 6 10 10 11 10 3 0 -20 64 -41 127 -42 64 0 82 -3
101 -14 7 -5 35 -10 62 -12 27 -2 65 -11 83 -20 32 -15 35 -20 40 -73 6 -60
45 -188 77 -258 32 -70 34 -90 11 -113 -12 -12 -24 -21 -28 -20 -4 0 -9 -5
-12 -12 -2 -8 2 -10 12 -6 9 3 19 2 22 -3 4 -6 14 -10 23 -10 13 0 13 2 -4 14
-10 8 -15 18 -11 23 14 13 31 -30 28 -72 -2 -44 11 -77 47 -115 18 -20 20 -25
8 -32 -10 -6 -23 0 -40 17 -14 14 -33 24 -43 24 -17 -1 -17 -2 0 -6 9 -2 17
-11 17 -18 0 -9 6 -12 15 -9 8 4 15 2 15 -4 0 -15 -25 -21 -41 -11 -8 5 -9 9
-4 9 6 0 3 5 -5 10 -8 5 -24 9 -35 9 -20 0 -20 0 0 -8 11 -5 28 -18 38 -29 11
-11 24 -19 31 -16 6 2 20 -10 30 -28 11 -18 27 -41 38 -51 10 -10 18 -27 18
-37 0 -15 7 -20 25 -20 22 0 24 3 15 19 -14 27 -13 31 9 31 12 0 21 -9 25 -25
7 -28 36 -34 36 -7 0 10 -7 28 -16 40 -14 20 -11 48 4 38 4 -2 16 3 27 11 14
11 16 17 7 20 -6 3 -9 10 -6 15 4 7 2 8 -4 4 -6 -4 -9 -13 -6 -20 4 -9 -3 -13
-20 -13 -15 0 -26 5 -26 13 0 7 -8 14 -17 16 -12 2 -14 6 -6 11 6 4 18 1 26
-8 13 -13 16 -13 27 1 11 12 10 13 -5 8 -14 -6 -16 -4 -10 6 5 8 4 11 -3 7
-13 -9 -42 2 -42 15 0 5 5 6 12 2 8 -5 9 0 4 17 -4 13 -8 29 -9 34 -2 6 -5 15
-9 20 -3 6 -5 26 -4 47 0 20 -2 34 -6 31 -5 -2 -8 1 -8 6 0 6 7 11 15 11 8 0
15 -4 15 -9 0 -10 30 -24 37 -17 3 2 -7 15 -21 27 -14 12 -26 29 -26 37 0 8
15 0 37 -22 30 -29 40 -34 48 -23 5 8 24 15 40 15 29 2 67 8 73 12 1 2 12 3
24 4 37 2 65 80 33 92 -8 3 -30 0 -50 -6 -20 -7 -46 -13 -58 -15 -22 -4 -58
-12 -67 -15 -3 -1 -9 -3 -15 -4 -5 0 -11 -5 -11 -11 -1 -5 2 -9 7 -7 5 1 9 -2
9 -8 0 -5 5 -10 11 -10 5 0 7 5 4 10 -4 6 -3 10 2 9 4 -1 16 1 26 6 27 11 44
-10 24 -29 -23 -24 -33 -19 -11 5 19 21 19 21 -9 8 -15 -7 -27 -16 -27 -21 0
-13 -17 -9 -34 7 -8 8 -26 19 -40 25 -19 7 -36 31 -65 92 -66 142 -72 159 -78
224 -5 58 -3 68 21 104 14 22 31 40 36 40 6 0 10 7 10 15 0 8 5 15 11 15 6 0
9 -9 6 -20 -3 -12 0 -20 8 -20 7 0 18 -7 25 -15 14 -17 41 -15 64 4 8 7 32 12
53 11 21 -1 40 -1 43 0 3 1 21 4 40 7 39 5 136 47 163 71 9 8 17 13 17 9 0 -6
44 16 98 48 17 11 35 28 38 38 3 9 9 15 13 12 5 -2 13 7 20 21 6 14 15 23 20
20 16 -10 61 34 61 60 0 13 -4 24 -8 24 -11 0 -16 50 -17 142 0 96 9 108 85
107 172 0 229 -19 189 -63 -25 -26 -41 -87 -33 -123 7 -35 7 -50 -2 -88 -9
-37 -19 -45 -66 -45 -21 0 -38 -5 -38 -10 0 -6 -4 -9 -9 -8 -13 4 -92 -62 -86
-72 3 -4 1 -10 -3 -12 -4 -1 -23 -24 -40 -50 -29 -42 -32 -53 -28 -100 2 -29
4 -56 5 -59 1 -3 11 -11 24 -16 32 -15 81 7 101 44 11 23 21 29 50 30 19 1 48
10 63 21 28 19 46 26 69 23 7 0 22 -22 34 -48 12 -26 30 -53 39 -60 17 -14 79
-33 124 -39 31 -4 106 22 122 43 6 7 26 15 45 18 19 3 49 10 65 15 25 8 43 5
94 -15 113 -44 174 -108 186 -196 l7 -46 -45 -26 c-45 -26 -97 -79 -97 -98 0
-6 -14 -22 -30 -36 -35 -29 -72 -97 -90 -161 -10 -38 -9 -47 9 -76 21 -33 21
-33 1 -51 -11 -10 -20 -24 -20 -30 0 -17 -26 -26 -53 -20 -29 7 -47 -6 -53
-38 -3 -20 0 -27 11 -27 9 0 15 9 15 26 0 31 23 28 28 -4 4 -26 11 -28 26 -6
12 15 46 10 46 -7 0 -5 5 -9 11 -9 8 0 10 16 5 50 -7 49 -6 50 19 50 37 0 39
-2 43 -45 2 -22 5 -41 6 -42 2 -2 17 0 33 3 31 6 31 7 35 83 3 42 8 83 12 92
5 11 1 18 -11 22 -10 2 -26 8 -36 12 -13 6 -20 0 -28 -24 -10 -29 -14 -31 -43
-25 -17 3 -33 8 -34 9 -11 10 67 187 86 199 5 3 19 -8 31 -25 l22 -30 -21 -28
c-25 -36 -25 -47 -2 -54 9 -2 24 -8 33 -12 13 -5 20 2 29 29 6 20 31 55 54 79
41 40 42 44 32 75 l-11 32 -35 -29 c-42 -36 -44 -37 -70 -11 -19 19 -19 23 -6
42 24 34 107 78 127 68 21 -12 39 -62 32 -88 -3 -12 5 -29 21 -45 25 -25 37
-65 15 -52 -19 12 -69 -17 -91 -54 -50 -80 -75 -202 -45 -214 26 -10 197 33
197 49 0 4 -8 13 -17 19 -17 13 -17 14 0 32 22 25 22 47 0 39 -11 -5 -24 2
-37 17 -12 13 -29 27 -40 30 -14 6 -16 10 -7 21 6 7 9 15 6 17 -2 3 5 6 17 6
12 1 29 -9 40 -23 52 -65 40 -1 -38 204 -31 81 -59 162 -64 180 -4 18 -15 42
-23 55 -28 41 -116 131 -123 125 -3 -4 4 -11 15 -18 12 -6 21 -15 21 -21 0 -6
-19 4 -41 22 -36 29 -39 34 -23 39 17 6 14 10 -16 29 -19 11 -44 21 -55 21
-34 0 -95 -20 -95 -32 0 -6 7 -7 18 -3 45 20 132 17 132 -5 0 -6 -19 -7 -45
-3 -26 3 -50 1 -57 -5 -7 -5 -35 -13 -61 -17 -30 -5 -69 -21 -100 -42 -44 -30
-56 -33 -91 -27 -67 10 -105 31 -117 61 -24 59 -33 73 -56 88 -21 14 -26 14
-61 -4 -21 -11 -44 -27 -51 -35 -17 -20 -35 -20 -55 0 -12 12 -13 20 -6 35 16
29 -8 24 -54 -11 -46 -35 -68 -40 -40 -9 31 34 87 59 107 47 15 -8 16 -12 6
-24 -18 -22 5 -43 29 -26 36 25 92 52 109 52 25 -1 84 -56 77 -73 -10 -28 38
-67 97 -79 l56 -12 64 48 c75 57 100 70 157 85 49 14 112 5 112 -15 0 -8 5
-14 12 -14 6 0 8 3 5 7 -4 3 0 15 10 25 25 28 93 24 123 -7 29 -30 46 -32 55
-5 8 24 -10 50 -34 50 -9 0 2 9 24 20 53 25 69 39 88 77 26 49 21 81 -17 119
-45 45 -99 42 -153 -8 -14 -13 -28 -18 -42 -13 -26 8 -73 -17 -103 -55 l-24
-31 -25 20 c-28 23 -32 18 54 65 37 21 74 47 82 59 46 66 -26 207 -106 207
-15 0 -31 -5 -34 -10 -10 -16 -58 1 -87 32 -27 29 -36 32 -62 22 -25 -10 -19
-22 8 -17 13 3 32 0 43 -6 15 -9 12 -10 -20 -11 -22 0 -36 -4 -32 -10 3 -5 12
-7 19 -4 7 3 36 -4 65 -16 45 -18 54 -18 74 -6 14 9 29 11 43 6 53 -21 107
-128 84 -170 -6 -10 -41 -37 -79 -60 -72 -41 -87 -47 -76 -30 14 23 -24 56
-83 74 -58 18 -61 18 -92 0 -17 -11 -40 -35 -51 -56 -14 -27 -27 -38 -51 -43
-45 -10 -75 -30 -98 -68 -25 -41 -25 -79 0 -102 11 -10 20 -22 20 -27 0 -16
-27 -7 -50 17 -35 37 -97 30 -147 -17 -25 -24 -43 -18 -23 7 11 13 10 18 -6
30 -25 19 -38 19 -79 -4 -36 -19 -75 -61 -75 -80 0 -6 -4 -11 -10 -11 -18 0
-11 19 27 72 54 77 94 119 131 134 28 12 36 12 61 0 16 -9 31 -22 34 -31 7
-17 33 -20 42 -4 4 5 0 18 -8 27 -31 35 -29 91 5 113 5 3 1 23 -8 44 -27 66
-9 102 97 198 93 83 246 131 292 90 20 -18 20 -17 13 2 -16 39 -25 90 -20 106
2 9 0 28 -6 43 -19 51 19 86 53 48 14 -16 14 -19 -3 -42 l-20 -25 -1 35 c-1
22 -3 27 -6 14 -2 -12 0 -37 5 -55 l9 -34 18 40 c10 22 19 48 20 58 1 11 11
28 22 38 15 16 27 19 59 13 33 -5 42 -12 51 -35 6 -16 16 -29 23 -29 7 0 6 8
-4 22 -9 12 -16 29 -16 38 1 11 4 9 12 -5 6 -11 19 -30 30 -41 19 -21 19 -21
-7 -26 -21 -4 -31 1 -52 29 -14 18 -28 31 -31 28 -3 -3 4 -19 17 -35 21 -29
21 -30 1 -30 -13 0 -22 9 -26 27 l-7 26 -14 -36 c-8 -19 -21 -38 -29 -41 -18
-7 -18 5 1 30 17 22 20 38 5 29 -10 -6 -50 -78 -50 -90 0 -3 13 1 28 9 15 8
46 17 67 21 85 15 161 39 183 59 13 12 44 32 69 46 76 42 87 64 87 175 0 78
-4 98 -19 115 -10 11 -24 20 -32 20 -7 0 -13 6 -13 13 0 21 -44 57 -69 57 -17
0 -21 4 -16 19 3 10 -1 23 -10 31 -20 16 -191 34 -341 34 l-121 1 -38 130
c-20 72 -46 157 -55 190 -10 33 -37 146 -60 250 -23 105 -47 198 -52 208 -17
34 -27 16 -13 -24 8 -23 15 -43 15 -45 0 -3 -18 5 -40 16 -61 31 -82 26 -142
-32 -30 -29 -66 -68 -80 -87 l-25 -33 -6 28 c-4 25 4 37 69 102 41 41 74 79
74 85 0 6 -34 -22 -75 -63 -41 -41 -77 -71 -81 -67 -4 3 -1 14 7 23 11 13 11
18 2 21 -9 3 -7 15 8 45 24 47 19 57 -17 33 -24 -15 -26 -16 -21 -1 4 11 1 16
-9 16 -13 0 -15 -7 -10 -37z m305 -48 c30 -14 52 -27 50 -30 -7 -6 -107 29
-121 43 -20 20 11 15 71 -13z m-737 -19 c181 -60 344 -152 401 -228 96 -126
189 -387 147 -413 -14 -8 -13 -42 1 -47 7 -2 14 -21 16 -41 3 -36 3 -37 -21
-26 -39 18 -73 3 -96 -41 -11 -21 -20 -55 -20 -75 0 -33 -2 -36 -22 -29 -33
10 -34 12 -15 47 40 76 21 119 -59 131 -53 9 -100 -56 -74 -103 13 -25 10 -25
-36 -6 l-36 15 21 34 c24 38 27 98 8 136 -15 30 -72 70 -100 70 -37 0 -104
-40 -131 -78 -31 -46 -33 -73 -6 -97 27 -24 25 -35 -4 -35 -14 0 -27 -4 -30
-9 -6 -9 -86 -20 -86 -13 0 3 13 19 28 36 25 29 27 37 22 87 -5 52 -6 54 -38
57 -42 4 -95 -28 -133 -81 -36 -50 -36 -61 1 -99 22 -22 37 -29 55 -25 14 2
25 0 25 -4 0 -5 -4 -9 -9 -9 -6 0 -37 -25 -71 -57 -51 -47 -60 -52 -56 -32 15
73 14 88 -6 125 -27 52 -58 84 -80 84 -25 0 -105 -76 -129 -122 -23 -46 -25
-134 -4 -185 l15 -36 54 6 54 5 -55 -81 c-61 -91 -78 -112 -67 -84 7 18 -12
128 -27 159 -26 51 -86 64 -131 29 -40 -32 -78 -122 -78 -184 0 -49 3 -58 31
-81 39 -34 104 -36 143 -5 37 29 44 17 12 -21 -28 -34 -34 -70 -12 -70 9 0 12
7 9 18 -2 10 7 34 21 54 13 20 32 51 40 70 56 114 234 320 345 398 31 22 94
41 134 41 9 0 17 3 17 7 0 17 182 -9 218 -32 6 -3 32 -10 59 -15 27 -6 78 -27
113 -49 36 -21 86 -47 113 -57 44 -17 64 -35 126 -115 l23 -31 -33 -67 c-18
-37 -42 -77 -53 -89 -29 -33 -81 -30 -141 8 -108 68 -243 103 -317 82 -15 -4
-88 -68 -163 -140 -74 -73 -139 -133 -144 -133 -5 0 -14 -7 -21 -15 -21 -25
-140 -18 -234 15 -45 16 -102 31 -128 35 -38 5 -48 10 -48 25 0 10 -5 22 -11
26 -8 5 -10 -1 -6 -18 5 -18 2 -28 -8 -32 -11 -4 -26 11 -50 48 -20 32 -46 58
-64 66 -35 14 -42 35 -24 70 7 14 13 52 13 86 0 47 -4 65 -19 78 -24 22 -43
13 -94 -43 -41 -45 -56 -99 -38 -138 11 -24 15 -25 66 -21 31 3 55 0 55 -5 0
-5 -10 -23 -22 -40 -13 -18 -22 -46 -23 -68 0 -26 -3 -34 -11 -28 -7 6 -9 23
-4 49 4 22 3 40 -1 40 -5 0 -9 -13 -9 -30 0 -35 -9 -38 -34 -9 -12 14 -16 30
-12 48 6 24 5 24 -8 8 -11 -14 -15 -15 -25 -3 -6 7 -9 20 -6 28 5 12 0 14 -18
11 -23 -5 -29 3 -70 89 -42 89 -45 102 -55 219 -12 153 -3 229 42 356 62 179
98 243 176 319 39 38 77 71 83 73 7 2 30 20 52 41 42 39 266 150 304 150 11 0
38 6 58 14 58 22 68 24 215 25 120 1 146 -2 210 -23z m662 9 c-5 -11 2 -15 26
-15 53 0 95 -26 108 -66 8 -27 8 -34 -1 -30 -7 2 -30 10 -52 17 -22 7 -43 17
-46 22 -4 5 -9 4 -13 -2 -11 -18 -26 -13 -19 7 6 15 5 16 -13 2 -37 -28 -119
-104 -128 -120 -10 -16 83 59 104 85 7 8 17 15 22 15 6 0 -23 -31 -63 -70 -72
-68 -86 -80 -75 -61 3 4 1 23 -4 41 -11 38 -1 55 84 143 44 46 82 63 70 32z
m94 -117 c36 -9 62 -31 62 -51 0 -3 -17 1 -37 9 -77 27 -106 20 -185 -47 -100
-83 -103 -55 -4 37 58 55 82 71 99 67 12 -2 41 -9 65 -15z m-113 -98 c-28 -38
-43 -50 -63 -50 -25 0 -23 4 33 54 33 30 62 52 64 50 2 -2 -13 -26 -34 -54z
m111 29 c-27 -4 -49 -17 -68 -38 -30 -33 -41 -74 -14 -51 8 6 13 17 10 25 -9
22 47 52 97 53 l45 1 14 -62 c7 -34 14 -68 16 -74 2 -9 -13 -11 -55 -7 -55 6
-57 6 -93 -31 -28 -29 -34 -40 -25 -50 8 -9 16 -10 25 -3 6 6 12 8 12 4 0 -3
16 1 36 9 30 12 44 13 78 3 36 -11 60 -27 52 -35 -2 -2 -22 4 -46 12 -49 17
-60 18 -60 6 0 -4 21 -14 48 -21 70 -18 75 -20 69 -27 -4 -3 -27 0 -52 7 -31
9 -49 10 -56 3 -9 -9 23 -17 99 -25 6 -1 12 -6 12 -11 0 -5 -10 -6 -22 -3 -69
20 -82 18 -122 -19 -47 -44 -34 -65 21 -32 31 18 39 19 89 8 44 -10 57 -18 65
-38 5 -14 8 -27 6 -29 -2 -3 -23 3 -47 11 -25 9 -47 12 -52 7 -5 -5 5 -12 24
-15 41 -7 92 -26 86 -32 -2 -3 -26 2 -52 11 -35 12 -51 13 -59 5 -6 -6 -18
-11 -26 -11 -8 0 -23 -7 -33 -17 -10 -9 -18 -11 -18 -6 0 6 7 16 15 23 22 18
18 30 -9 30 -14 0 -31 7 -39 15 -14 13 -20 13 -54 -1 -70 -29 -72 -35 -57
-116 13 -70 10 -87 -17 -88 -8 0 -19 106 -19 180 0 47 4 60 24 79 14 13 30 36
36 52 7 16 13 29 14 29 0 0 26 -7 56 -15 64 -17 78 -12 26 10 -78 33 -88 31
-115 -25 -13 -27 -29 -50 -34 -50 -5 0 -6 7 -3 16 3 8 2 12 -4 9 -6 -3 -10 -4
-10 -1 0 2 -3 12 -7 22 -5 13 -3 15 7 9 9 -6 11 -4 5 5 -4 7 -2 16 6 21 22 14
33 10 19 -6 -7 -8 -8 -15 -2 -15 5 0 15 6 21 14 9 11 8 15 -5 20 -24 9 -31 8
-50 -11 -13 -13 -16 -14 -12 -3 3 8 -5 30 -18 49 -13 19 -20 39 -16 45 7 12 9
18 11 41 0 9 12 16 29 16 l27 2 -28 4 c-39 6 -23 23 23 23 35 0 42 5 81 58
l43 58 45 -10 46 -11 -39 -6z m92 -180 c12 -5 22 -14 22 -20 0 -11 -5 -11 -83
9 -34 9 -41 7 -70 -16 l-32 -27 16 25 c30 47 74 55 147 29z m14 -142 c48 -13
73 -27 47 -27 -8 0 -31 5 -52 11 -22 6 -43 7 -50 2 -7 -5 -25 -15 -42 -21
l-30 -12 35 29 c19 17 37 30 40 30 3 0 26 -5 52 -12z m-198 -132 c-14 -19 -29
-35 -33 -35 -14 0 -5 54 9 58 13 5 13 3 0 -13 -14 -17 -14 -17 7 -7 12 7 25
17 28 22 3 6 8 10 11 10 3 0 -7 -16 -22 -35z m82 25 c20 0 17 -15 -9 -46 -19
-22 -29 -26 -50 -20 l-27 6 23 35 c12 20 28 33 35 30 8 -3 20 -5 28 -5z m-616
-19 c15 -1 31 -10 39 -23 17 -26 32 -110 19 -102 -4 3 -8 -1 -8 -9 0 -22 -25
-27 -78 -17 -68 13 -82 20 -92 45 -12 33 -3 58 30 80 16 11 26 23 24 27 -3 4
5 6 18 4 13 -3 34 -5 48 -5z m800 -25 c28 -13 43 -53 16 -43 -9 4 -41 2 -73
-4 -36 -7 -64 -7 -77 -1 -15 6 -40 3 -85 -11 -53 -16 -65 -17 -72 -6 -16 26
-9 31 36 24 40 -5 48 -3 65 17 13 15 19 18 20 9 0 -10 8 -7 27 10 25 22 26 22
9 1 -30 -34 -13 -36 18 -1 23 26 32 29 59 24 18 -4 43 -12 57 -19z m-1056 -32
c15 -40 -29 -114 -69 -114 -50 0 -59 46 -17 89 40 42 76 52 86 25z m919 -34
c20 -1 20 -2 5 -11 -20 -11 -71 -1 -62 13 3 5 13 7 21 4 8 -3 24 -6 36 -6z
m155 -6 c8 -15 11 -15 35 1 22 14 46 17 144 13 65 -2 125 -8 133 -13 8 -5 40
-8 72 -6 70 3 102 -11 95 -45 -3 -19 0 -24 15 -24 32 0 78 -29 72 -45 -4 -9 0
-15 8 -15 25 0 60 -41 54 -62 -2 -12 2 -31 11 -45 9 -13 14 -25 12 -27 -2 -2
-13 -8 -24 -14 -20 -11 -20 -11 -1 -12 16 0 17 -3 8 -12 -7 -7 -12 -24 -12
-39 0 -31 -44 -71 -99 -90 -27 -9 -35 -8 -52 6 -10 10 -21 16 -24 13 -3 -3 4
-13 15 -23 11 -10 20 -25 20 -33 0 -9 -14 0 -35 24 -19 21 -35 34 -35 28 0 -6
11 -23 25 -38 28 -31 30 -36 13 -36 -7 0 -24 16 -38 36 l-24 36 32 29 c33 29
41 49 21 49 -6 0 1 16 16 36 15 19 25 38 22 40 -3 3 -14 -7 -26 -22 -26 -34
-39 -25 -15 10 9 15 14 29 11 32 -3 3 -11 -5 -18 -18 -6 -12 -13 -24 -14 -26
-3 -3 -64 26 -74 34 -2 2 2 10 8 18 8 9 8 16 2 20 -5 4 -12 -3 -16 -14 -3 -11
-13 -20 -21 -20 -18 0 -18 10 2 38 9 13 13 26 9 30 -3 4 -10 0 -15 -8 -20 -35
-39 -54 -46 -48 -3 4 1 19 10 32 18 29 20 36 7 36 -5 0 -15 -16 -22 -35 -17
-46 -33 -45 -26 3 6 34 5 35 -8 18 -8 -11 -12 -29 -9 -43 7 -28 1 -29 -22 -6
-13 13 -19 14 -22 5 -2 -6 -11 -12 -19 -12 -13 0 -13 3 -3 15 10 12 10 21 2
40 -7 14 -16 25 -22 25 -15 0 -12 -20 5 -26 13 -5 13 -9 -1 -35 -17 -34 -38
-39 -29 -6 6 21 5 20 -17 -5 -13 -14 -39 -30 -58 -33 l-35 -7 19 21 c11 12 16
24 12 29 -7 7 -31 -19 -39 -41 -6 -20 -28 5 -22 26 6 24 7 24 -47 -46 -14 -18
-20 -20 -35 -11 -10 7 -17 20 -15 33 2 11 -2 21 -7 21 -6 0 -11 -11 -11 -24 0
-16 -11 -32 -29 -45 -32 -23 -75 -28 -68 -8 2 6 15 10 28 9 13 -2 21 -1 17 3
-4 4 -3 16 3 26 13 24 4 24 -32 -2 -32 -22 -38 -16 -12 13 11 12 12 18 4 18
-7 0 -20 -18 -29 -39 -9 -22 -26 -42 -36 -45 -19 -5 -19 -6 -3 -24 17 -18 15
-23 -29 -105 -25 -48 -50 -89 -55 -92 -5 -4 -9 -12 -9 -20 0 -11 11 -13 48 -8
l49 5 -5 -33 c-4 -24 -7 -28 -10 -14 -5 27 -22 44 -22 23 0 -27 11 -48 26 -48
8 0 14 -4 14 -10 0 -13 -17 -13 -25 1 -4 6 -19 7 -36 4 -23 -5 -29 -3 -29 10
0 9 4 14 9 11 9 -6 23 19 15 27 -13 13 -43 -7 -46 -32 -2 -15 -9 -26 -18 -26
-26 0 -15 73 15 103 14 14 44 61 66 105 l40 79 -23 29 c-68 86 -70 90 -65 117
3 15 11 57 18 95 l12 67 39 0 c25 0 37 4 33 11 -9 13 25 38 42 32 7 -3 13 0
13 6 0 18 25 13 45 -9 17 -19 20 -19 28 -4 12 22 85 54 124 54 19 0 36 -6 41
-16z m-581 -56 c8 -7 9 -17 3 -33 -5 -13 -7 -25 -4 -28 3 -2 -2 -7 -10 -10
-22 -9 -66 30 -59 51 15 41 35 46 70 20z m-718 -55 c7 -14 9 -42 5 -74 -8 -66
-43 -107 -98 -116 -51 -8 -66 12 -66 88 0 50 5 63 33 101 18 23 44 48 57 55
20 10 26 8 40 -10 9 -12 22 -32 29 -44z m886 39 c12 -8 18 -55 7 -48 -4 2 -8
-12 -10 -31 -2 -34 -33 -73 -40 -52 -2 5 -11 9 -19 9 -13 0 -15 9 -10 45 7 63
41 99 72 77z m770 -236 c9 -9 20 -16 25 -16 4 0 10 -9 13 -20 8 -29 -28 -50
-86 -50 -34 0 -49 -4 -54 -16 -3 -8 -11 -13 -19 -10 -7 3 -15 0 -18 -7 -5 -9
-7 -9 -12 0 -7 15 -54 -4 -54 -23 0 -6 -7 -14 -14 -17 -12 -5 -14 -20 -9 -71
4 -47 2 -66 -6 -66 -14 0 -27 34 -35 91 -4 24 -9 60 -12 80 -5 33 -3 37 25 49
43 17 53 38 35 72 -17 32 -14 34 55 36 29 0 55 3 58 6 8 8 91 -21 108 -38z
m-284 3 c51 -22 66 -49 27 -49 -12 0 -32 10 -45 22 l-23 21 -47 -37 c-94 -73
-192 -161 -192 -173 -1 -7 -6 -13 -12 -13 -6 0 -9 14 -7 32 3 28 17 43 98 105
52 40 106 81 120 92 14 11 26 20 28 21 2 0 26 -10 53 -21z m-1629 -41 c17 -15
39 -87 40 -135 1 -38 -12 -57 -55 -78 -63 -32 -120 15 -110 89 8 61 63 136 98
136 6 0 18 -6 27 -12z m1418 5 c0 -13 -19 -38 -27 -38 -18 0 -75 -68 -94 -112
-20 -48 -34 -63 -56 -63 -17 0 -7 40 27 104 16 31 29 59 30 61 0 3 0 10 0 15
0 6 17 10 39 10 22 0 44 6 51 15 13 16 30 20 30 8z m188 -137 c12 -73 24 -141
28 -150 4 -10 1 -16 -9 -16 -16 0 -33 58 -28 99 2 26 -14 109 -31 153 -10 26
-5 48 11 48 4 0 17 -60 29 -134z m-1848 46 c0 -53 -12 -72 -46 -72 -42 0 -44
42 -3 93 32 42 49 35 49 -21z m-249 -62 c5 0 9 -9 9 -21 0 -11 4 -18 8 -15 5
3 9 -123 10 -281 1 -157 4 -288 7 -291 3 -3 5 118 6 269 0 151 3 268 6 261 2
-6 9 -10 14 -6 5 3 10 -60 11 -153 l2 -158 6 150 c6 143 6 139 6 -70 0 -130
-2 -191 -6 -150 l-6 70 -4 -85 c-3 -49 -7 14 -10 150 l-6 235 -2 -262 c-1
-167 -6 -263 -12 -263 -5 0 -10 -7 -10 -15 0 -8 -4 -15 -10 -15 -5 0 -10 -18
-10 -40 0 -22 5 -40 10 -40 6 0 10 -9 10 -21 0 -11 4 -17 10 -14 6 4 10 -47
10 -145 0 -148 -1 -151 -25 -176 -14 -14 -25 -21 -26 -17 0 4 -4 -1 -9 -12 -5
-11 -8 235 -8 575 1 327 3 583 5 568 2 -16 9 -28 14 -28z m1247 -18 c9 -50 -2
-88 -12 -40 -12 59 -15 86 -9 92 9 9 10 6 21 -52z m742 28 c0 -35 4 -36 37
-10 34 26 40 25 46 -7 5 -23 0 -33 -25 -55 -30 -26 -31 -30 -21 -62 10 -34 10
-36 -23 -55 l-34 -20 0 39 c0 47 -8 49 -40 15 -31 -33 -40 -32 -40 4 0 20 9
37 31 56 28 23 30 29 21 50 -9 19 -7 28 9 49 27 34 39 33 39 -4z m-798 -26 c4
-56 -7 -68 -16 -16 -8 51 -8 62 3 62 5 0 11 -21 13 -46z m32 -73 c-9 -9 -14 7
-18 65 l-6 59 14 -60 c8 -33 12 -62 10 -64z m103 83 c3 -27 2 -27 -7 -6 -14
32 -23 27 -15 -8 4 -19 3 -30 -4 -30 -12 0 -15 62 -4 74 13 13 28 -1 30 -30z
m-145 -104 c5 0 6 5 3 10 -3 6 -1 10 4 10 22 0 10 -29 -16 -38 -18 -7 -22 -11
-10 -11 13 -1 17 -10 17 -38 0 -21 7 -75 16 -120 15 -77 15 -84 0 -108 -20
-30 -7 -33 19 -5 18 20 18 24 -2 128 -25 126 -26 147 -6 130 12 -9 13 -7 8 14
-4 15 -2 29 4 32 7 5 11 -3 12 -18 2 -34 3 -39 12 -53 10 -16 109 -37 139 -30
29 8 139 106 119 107 -7 0 -24 -12 -37 -27 -13 -16 -24 -23 -24 -16 0 14 47
63 60 63 5 0 14 -8 19 -17 6 -10 11 -12 11 -5 0 6 7 12 16 12 9 0 14 -6 12
-12 -3 -7 -13 -65 -23 -128 -19 -120 -77 -308 -115 -373 -27 -45 -79 -77 -91
-56 -22 39 -35 48 -61 42 -19 -3 -28 -12 -28 -24 0 -11 -4 -19 -10 -19 -5 0
-10 14 -10 30 0 44 -17 37 -42 -17 -12 -25 -24 -41 -26 -35 -7 21 -22 13 -38
-22 -15 -30 -22 -34 -66 -39 -35 -4 -59 -2 -79 8 -15 8 -35 15 -43 15 -8 0
-50 25 -93 55 -113 81 -134 99 -129 112 3 7 -7 21 -22 32 -21 16 -24 23 -14
29 10 7 7 13 -12 25 -15 10 -23 23 -20 31 3 8 -3 20 -14 27 -11 7 -18 18 -15
26 3 7 -6 18 -21 24 -41 19 -71 139 -36 139 5 0 7 -6 4 -13 -3 -8 6 -18 20
-25 21 -9 27 -8 35 6 10 16 10 16 11 -1 0 -39 155 -100 229 -90 33 5 42 10 47
30 4 13 4 27 0 30 -3 4 -6 -5 -7 -18 0 -22 -1 -23 -9 -4 -5 11 -9 29 -9 40 -1
17 1 17 9 5 8 -12 10 -12 11 5 0 20 0 20 9 0 8 -18 9 -18 10 5 1 23 2 23 10 5
5 -11 9 -29 9 -40 1 -17 -1 -17 -9 -5 -8 12 -10 11 -10 -7 0 -13 2 -23 6 -23
15 0 126 85 172 133 l54 54 -11 59 c-7 39 -8 61 -1 68 7 7 10 -5 11 -34 0 -25
4 -54 9 -65 6 -13 8 7 5 55 l-4 75 11 -67 c6 -38 15 -68 20 -68z m97 73 c0
-42 -3 -52 -9 -38 -12 28 -12 95 0 95 6 0 10 -25 9 -57z m99 27 c26 -24 27
-30 7 -30 -8 0 -15 7 -15 15 0 8 -4 15 -9 15 -5 0 -7 -8 -4 -19 3 -12 -2 -20
-16 -24 -23 -6 -29 8 -7 16 9 4 12 14 9 26 -7 27 7 27 35 1z m-259 -79 c6 -36
5 -51 -3 -48 -13 4 -29 76 -21 96 8 22 15 8 24 -48z m781 45 c0 -14 -29 -31
-38 -21 -6 6 18 35 29 35 5 0 9 -6 9 -14z m-444 -43 c-4 -4 -11 -1 -16 7 -8
13 -10 12 -10 -2 0 -9 -4 -20 -10 -23 -6 -4 -10 7 -10 25 0 17 4 29 9 25 5 -3
13 0 17 7 5 8 11 5 17 -10 6 -12 7 -25 3 -29z m-103 10 c-7 -3 -13 -13 -13
-23 0 -10 -4 -22 -10 -25 -6 -4 -10 6 -10 24 0 20 6 31 18 33 20 5 32 -3 15
-9z m473 -8 c-3 -11 -6 -29 -6 -39 0 -21 -15 -12 -23 14 -2 8 -3 2 -1 -13 2
-17 0 -26 -6 -22 -6 3 -11 16 -11 28 -1 14 -4 9 -9 -13 -5 -29 -8 -32 -15 -16
-13 30 22 86 52 84 19 -2 23 -7 19 -23z m-771 -32 c-1 -16 3 -36 8 -47 6 -11
5 -22 -2 -29 -8 -8 -11 -7 -12 4 -1 7 -3 28 -4 44 -2 17 -3 31 -4 33 -1 1 -10
-7 -21 -18 -11 -11 -25 -20 -30 -20 -10 0 50 59 60 60 3 0 5 -12 5 -27z m39
-45 c-3 -4 -10 -6 -15 -3 -11 7 -12 49 -2 59 9 9 24 -44 17 -56z m498 32 c-2
-17 -8 -33 -13 -36 -10 -6 -11 11 -3 44 9 33 21 27 16 -8z m-1470 -17 c10 -21
12 -71 8 -193 l-6 -165 -4 180 -4 180 -6 -185 -6 -185 -2 198 c-1 108 0 197 3
197 2 0 10 -12 17 -27z m193 14 c14 -11 16 -21 11 -49 -9 -51 -26 -62 -63 -43
-29 14 -52 55 -32 55 5 0 9 5 9 11 0 13 30 38 46 39 5 0 18 -6 29 -13z m1539
-40 c5 -27 3 -38 -6 -41 -88 -24 -108 -25 -147 -11 -31 10 -48 11 -70 4 -25
-9 -34 -7 -52 10 -13 11 -19 24 -15 28 4 5 14 0 21 -10 13 -18 15 -18 39 -2
20 14 38 16 76 11 27 -4 57 -2 67 3 10 5 26 12 36 15 11 3 21 15 24 27 7 27
19 13 27 -34z m-834 -61 c-11 -11 -21 -18 -23 -15 -10 11 -16 89 -7 89 5 0 10
-16 10 -36 0 -21 4 -33 10 -29 6 3 7 17 4 30 -3 13 -2 30 2 37 6 9 11 1 16
-22 5 -28 3 -39 -12 -54z m291 74 c5 0 9 -8 9 -17 0 -15 -2 -16 -10 -3 -8 12
-10 12 -10 1 0 -11 -3 -11 -15 -1 -20 16 -19 34 1 26 9 -3 20 -6 25 -6z m38
-7 c1 24 21 22 21 -3 0 -13 -7 -20 -20 -20 -14 0 -20 6 -19 23 0 21 1 21 9 2
7 -17 9 -17 9 -2z m-369 -53 c4 -22 4 -43 0 -45 -8 -5 -20 43 -20 78 0 32 12
12 20 -33z m-810 21 c7 -11 17 -18 22 -15 4 3 8 0 8 -5 0 -6 34 -30 75 -53 41
-24 79 -53 84 -65 9 -19 6 -23 -23 -33 -34 -11 -86 -60 -102 -95 -6 -14 -11
18 -14 100 l-6 120 -2 -115 c-2 -116 -2 -116 -27 -118 l-25 -2 -2 138 -2 137
-6 -140 -6 -140 -2 153 c-1 83 2 152 6 152 4 0 14 -9 22 -19z m235 -17 c41
-19 147 -157 139 -179 -7 -17 -7 -17 -28 -9 -22 8 -20 25 2 18 16 -5 16 -5 -1
6 -9 6 -24 27 -32 46 -16 38 -71 94 -93 94 -16 0 -9 -47 9 -65 7 -7 8 0 3 19
l-7 28 28 -18 c25 -16 26 -19 9 -25 -18 -7 -18 -8 0 -8 19 -1 19 -1 1 -15 -18
-13 -18 -15 15 -48 19 -19 42 -37 50 -40 8 -3 12 -9 8 -13 -11 -11 -94 41
-118 74 -32 46 -52 101 -46 127 7 28 17 29 61 8z m547 -66 c-11 -11 -24 60
-15 76 4 6 11 -7 15 -28 5 -22 5 -43 0 -48z m944 28 c10 -8 17 -17 14 -20 -10
-9 -48 5 -54 20 -7 18 15 18 40 0z m-1417 -106 c3 -25 3 -25 -18 -6 -26 23
-27 39 -3 34 9 -2 19 -14 21 -28z m62 -97 c-5 -18 -15 -29 -29 -31 -26 -4 -28
5 -6 36 22 32 44 29 35 -5z m998 -42 c9 -43 9 -56 -1 -62 -20 -13 -40 40 -33
90 8 52 18 44 34 -28z m-949 35 c0 -28 -24 -53 -35 -36 -4 6 -4 22 -1 36 8 31
36 32 36 0z m1602 -16 c21 -6 44 -21 53 -32 13 -20 13 -24 -6 -44 -22 -24 -18
-44 9 -44 12 0 13 -3 4 -12 -18 -18 -14 -36 13 -54 32 -21 74 -11 114 27 27
25 28 29 11 29 -29 0 -24 16 13 44 42 32 61 33 81 4 9 -12 17 -18 17 -13 1 6
2 17 3 25 2 21 64 60 97 60 18 0 36 -10 53 -31 30 -35 33 -74 10 -107 -19 -27
-111 -82 -138 -82 -20 0 -79 -17 -106 -30 -9 -4 -38 -5 -65 -3 -63 6 -146 -24
-213 -76 -26 -20 -55 -42 -66 -48 -22 -12 -89 0 -124 23 -30 20 -26 58 6 62
21 3 32 22 12 22 -5 0 -10 4 -10 10 0 5 6 7 14 4 8 -3 17 -1 21 5 4 7 -4 11
-19 11 -48 0 -44 61 7 118 11 12 15 22 9 22 -6 0 -23 -16 -38 -35 -22 -30 -26
-42 -21 -78 5 -41 5 -42 -9 -15 -8 16 -12 38 -8 52 7 29 63 88 78 83 6 -2 21
0 34 4 17 7 24 5 28 -6 4 -8 10 -15 15 -15 4 0 6 6 3 14 -3 8 17 33 47 60 28
25 44 46 36 46 -8 0 -31 -18 -51 -40 -38 -42 -48 -42 -19 0 20 29 44 49 58 50
6 0 27 -5 47 -10z m-1548 -90 c7 -8 19 -32 25 -52 16 -48 29 -56 41 -24 5 14
12 26 15 26 7 0 20 -34 29 -75 l6 -30 -15 25 c-8 14 -15 34 -15 45 -1 19 -2
19 -12 -3 -9 -18 -7 -26 8 -43 18 -20 18 -21 -1 -35 -26 -20 -47 -18 -86 9
-31 21 -36 30 -51 110 -17 82 -17 88 -1 107 17 19 17 19 30 -12 8 -18 20 -39
27 -48z m1624 68 c13 -13 16 -66 4 -85 -5 -8 -13 -9 -22 -3 -12 7 -12 12 3 28
21 23 21 31 0 54 -18 20 -4 25 15 6z m-772 -41 c20 -12 17 -25 -8 -33 -13 -4
-28 -14 -35 -23 -7 -9 -13 -11 -13 -5 0 6 7 17 15 24 8 7 15 27 16 44 0 17 3
24 6 16 3 -8 12 -19 19 -23z m-806 -63 c0 -9 5 -12 12 -8 8 5 9 2 5 -10 -4
-10 -7 -23 -7 -29 -1 -7 -7 3 -15 22 -18 40 -18 41 -5 41 6 0 10 -7 10 -16z
m1659 -14 c23 0 24 -1 6 -20 -20 -22 -79 -28 -91 -9 -3 6 -1 22 6 35 12 21 15
22 34 9 11 -8 31 -15 45 -15z m-1572 -63 l13 -32 -6 35 c-5 36 7 26 20 -15 4
-16 1 -21 -14 -22 -18 -2 -21 3 -37 62 -8 30 10 9 24 -28z m618 11 c-16 -6
-51 -24 -78 -40 -75 -44 -161 -78 -168 -66 -4 6 -15 2 -28 -11 -12 -12 -21
-16 -21 -8 0 15 20 46 20 32 0 -5 4 -5 8 1 4 7 27 13 52 15 25 2 47 7 50 11
11 14 155 77 175 77 14 0 12 -4 -10 -11z m-1090 -24 c74 -5 131 -47 95 -69 -5
-3 -10 0 -10 7 0 10 -3 9 -11 -2 -8 -12 -10 -10 -5 10 5 24 5 25 -11 5 -15
-20 -15 -20 -11 1 3 13 0 21 -8 21 -8 0 -14 -5 -14 -11 0 -6 -5 -4 -10 4 -5 8
-10 11 -10 6 0 -5 -7 -3 -15 4 -9 7 -15 8 -15 2 0 -5 -9 -8 -20 -5 -11 3 -20
10 -20 15 0 6 -9 8 -20 5 -11 -3 -20 -2 -20 2 0 15 14 21 32 15 10 -3 43 -7
73 -10z m935 7 c0 -11 -19 -24 -37 -27 -16 -3 -17 8 -1 24 14 14 38 16 38 3z
m-678 -51 c62 -7 85 -20 73 -41 -6 -9 -11 -7 -22 6 -13 18 -13 18 -13 -1 0
-16 -2 -17 -10 -4 -9 13 -10 13 -10 0 0 -13 -1 -13 -10 0 -9 13 -10 13 -10 0
0 -13 -1 -13 -10 0 -9 13 -10 13 -11 0 0 -9 -4 -7 -11 8 -12 24 -23 28 -33 12
-3 -5 -15 -10 -25 -10 -14 0 -18 5 -13 18 6 14 4 15 -9 5 -14 -12 -28 -8 -28
8 0 10 40 17 65 11 10 -2 45 -8 77 -12z m318 -52 c0 -17 -17 -7 -30 17 -15 29
-23 31 -44 10 -17 -17 -30 -20 -21 -5 3 6 4 10 1 10 -3 0 -13 -14 -21 -30 -9
-17 -20 -28 -25 -25 -6 4 -10 0 -11 -7 0 -9 -2 -10 -5 -1 -3 7 0 21 6 32 6 12
7 21 2 21 -5 0 -14 -11 -20 -25 -10 -22 -14 -23 -42 -13 -35 12 -35 32 1 36
13 2 42 10 64 17 67 24 88 23 118 -4 15 -14 27 -28 27 -33z m101 29 c24 -1 47
-6 51 -12 5 -6 8 -5 8 3 0 7 13 12 30 12 35 0 38 -10 11 -27 -15 -10 -21 -10
-25 0 -3 9 -7 8 -15 -3 -7 -10 -11 -11 -11 -2 0 21 -19 13 -34 -15 -9 -16 -15
-21 -16 -13 0 13 -1 13 -11 0 -8 -12 -10 -12 -8 5 2 33 -1 41 -11 25 -8 -13
-10 -12 -10 3 0 9 -7 17 -15 17 -16 0 -20 12 -8 23 4 4 10 3 13 -3 4 -6 27
-12 51 -13z m623 -63 c-10 -8 -13 -13 -6 -9 17 9 15 0 -5 -16 -14 -12 -16 -12
-8 0 5 10 4 12 -3 7 -16 -10 -15 -26 2 -26 8 0 23 15 35 33 15 23 21 27 21 14
0 -24 -44 -67 -70 -67 -31 0 -25 34 11 65 17 14 34 23 37 20 3 -3 -3 -12 -14
-21z m-802 -25 c-2 -13 -6 -41 -9 -61 -9 -62 74 -293 122 -341 17 -18 17 -19
-11 -15 -21 2 -34 13 -51 43 -32 56 -81 197 -99 278 -13 66 -13 69 8 98 25 34
44 33 40 -2z m-735 -146 c-2 -32 -3 -6 -3 57 0 63 1 89 3 58 2 -32 2 -84 0
-115z m20 0 c-2 -27 -3 -5 -3 47 0 52 1 74 3 48 2 -27 2 -69 0 -95z m20 0 c-2
-21 -4 -4 -4 37 0 41 2 58 4 38 2 -21 2 -55 0 -75z m20 5 c-2 -18 -4 -4 -4 32
0 36 2 50 4 33 2 -18 2 -48 0 -65z m30 34 c-2 -15 -2 -21 0 -14 7 19 23 14 23
-7 0 -10 -9 -21 -20 -24 -18 -5 -20 0 -20 40 0 28 4 42 11 38 5 -4 8 -19 6
-33z m1055 -285 c-7 -8 -9 -16 -6 -20 3 -3 1 -14 -5 -24 -10 -17 -10 -17 -11
3 0 11 -5 25 -12 32 -9 9 -6 14 13 21 29 10 36 6 21 -12z m-55 -43 c4 4 1 11
-7 16 -8 5 -11 12 -8 16 4 3 15 -1 24 -11 15 -14 15 -18 3 -26 -8 -5 -20 -7
-26 -4 -7 2 -13 -1 -13 -7 0 -22 -13 2 -16 29 l-3 28 20 -24 c11 -13 23 -21
26 -17z m-231 -19 c-22 -16 -46 -20 -46 -7 0 15 13 22 39 22 25 -1 25 -1 7
-15z m-16 -83 c0 -23 8 -44 21 -58 30 -32 20 -51 -12 -25 -52 41 -74 136 -28
124 14 -4 19 -14 19 -41z m1725 -83 c21 -33 -31 -93 -61 -68 -17 14 -18 51 -2
67 15 15 55 16 63 1z m-1716 -89 c10 -5 26 -21 35 -36 18 -26 17 -26 -6 -19
-22 7 -57 42 -58 58 0 10 8 9 29 -3z"/>
<path d="M1151 2486 c-25 -27 -21 -46 9 -46 20 0 40 27 40 54 0 23 -23 19 -49
-8z"/>
<path d="M1288 2454 c-15 -8 -32 -23 -38 -34 -20 -38 -11 -57 46 -96 l56 -39
39 44 c44 49 52 96 21 124 -23 21 -87 21 -124 1z m88 -32 c13 -9 27 -45 15
-37 -5 3 -12 -3 -16 -14 -12 -39 -55 -36 -73 4 -9 19 -8 28 4 40 16 16 52 20
70 7z"/>
<path d="M1518 2446 c-41 -31 -40 -86 2 -86 38 0 64 62 38 88 -15 15 -19 15
-40 -2z"/>
<path d="M1802 2428 c-9 -9 -8 -16 5 -30 23 -26 33 -22 33 12 0 31 -17 39 -38
18z"/>
<path d="M991 2354 c-44 -50 -50 -77 -25 -112 13 -19 23 -23 62 -20 45 3 48 5
71 52 l25 49 -20 36 c-29 55 -61 54 -113 -5z m77 -31 c5 -34 -15 -63 -43 -63
-28 0 -33 22 -13 65 14 32 51 31 56 -2z"/>
<path d="M1642 2388 c-6 -6 -12 -25 -12 -42 0 -35 37 -115 53 -117 45 -5 84
17 96 54 9 25 7 37 -12 71 -20 38 -26 41 -67 44 -26 2 -50 -2 -58 -10z m74
-36 c6 -4 16 -17 22 -28 9 -17 8 -25 -7 -38 -24 -22 -48 -11 -56 26 -9 37 14
59 41 40z"/>
<path d="M1820 2268 c-11 -24 -20 -55 -20 -70 0 -23 4 -28 25 -28 33 0 75 42
75 75 0 74 -51 88 -80 23z"/>
<path d="M820 2258 c-26 -43 -25 -63 2 -82 32 -23 45 -20 63 14 21 41 19 65
-10 84 -32 21 -32 21 -55 -16z"/>
<path d="M705 2246 c-17 -26 -15 -56 4 -56 6 0 18 12 27 26 15 23 16 27 2 41
-15 14 -18 13 -33 -11z"/>
<path d="M685 2109 c-61 -55 -90 -117 -74 -153 17 -36 57 -50 108 -36 45 12
58 29 61 80 4 73 -1 100 -23 126 l-24 27 -48 -44z m53 -31 c15 -15 15 -59 1
-92 -12 -25 -59 -44 -79 -31 -19 11 -10 62 15 89 13 14 21 26 17 26 -8 0 20
20 29 20 3 0 10 -5 17 -12z"/>
<path d="M487 1973 c-30 -58 -30 -70 0 -76 44 -8 73 8 73 41 0 29 -26 62 -48
62 -6 0 -18 -12 -25 -27z"/>
<path d="M1744 1844 c3 -9 6 -20 6 -25 0 -16 18 -10 23 9 3 10 5 5 7 -13 1
-26 3 -27 10 -10 13 30 12 31 -15 43 -34 16 -38 15 -31 -4z"/>
<path d="M360 1820 c-23 -23 -27 -77 -6 -105 13 -18 14 -18 26 4 6 13 10 41 8
62 -2 21 0 39 4 39 5 0 8 5 8 10 0 16 -18 12 -40 -10z"/>
<path d="M1866 1795 c-4 -17 -1 -31 8 -40 12 -13 16 -11 25 17 13 37 6 51 -9
17 -10 -24 -10 -24 -7 4 5 34 -9 36 -17 2z"/>
<path d="M1170 1681 c0 -5 9 -19 20 -32 22 -28 28 -6 6 24 -14 18 -26 22 -26
8z"/>
<path d="M1140 1663 c0 -16 40 -73 51 -73 6 0 1 12 -10 26 -12 15 -21 33 -21
40 0 8 -4 14 -10 14 -5 0 -10 -3 -10 -7z"/>
<path d="M1100 1635 c0 -13 51 -104 61 -111 6 -4 10 -3 7 2 -2 5 -15 33 -27
62 -13 28 -28 52 -32 52 -5 0 -9 -2 -9 -5z"/>
<path d="M1078 1624 c-8 -12 17 -83 36 -102 23 -23 31 -8 9 17 -10 12 -23 38
-29 58 -6 20 -13 33 -16 27z"/>
<path d="M1046 1602 c-8 -13 26 -96 44 -107 19 -12 25 4 6 18 -9 7 -23 32 -30
56 -7 26 -16 40 -20 33z"/>
<path d="M1010 1593 c0 -15 25 -88 36 -107 7 -12 16 -16 24 -11 10 6 9 10 -4
17 -9 5 -21 29 -27 54 -10 38 -29 70 -29 47z"/>
<path d="M843 1579 c-17 -17 -16 -61 2 -85 17 -23 19 -15 5 22 -8 20 -8 29 1
34 6 4 9 15 7 24 -2 14 -5 15 -15 5z"/>
<path d="M879 1577 c0 -6 -2 -29 -5 -49 -4 -32 -2 -38 13 -37 11 0 13 3 6 6
-7 2 -13 12 -13 21 0 12 5 11 25 -8 26 -24 71 -35 81 -19 3 6 11 5 20 -2 21
-17 29 -3 10 16 -9 9 -16 24 -16 33 0 9 -5 24 -11 32 -8 11 -9 6 -5 -22 2 -21
1 -40 -3 -43 -11 -6 -35 51 -27 64 4 5 2 12 -3 15 -16 10 -19 -19 -6 -57 l13
-37 -29 17 c-33 20 -46 50 -30 66 8 8 11 5 11 -10 0 -12 4 -24 8 -27 5 -3 9 7
9 22 0 22 -5 28 -24 30 -12 1 -23 -4 -24 -11z"/>
<path d="M2130 2682 c24 -15 77 -25 65 -13 -6 6 -26 13 -45 16 -24 4 -30 3
-20 -3z"/>
<path d="M2092 2634 c-12 -8 -19 -20 -16 -26 7 -10 -12 -9 -65 4 -7 2 -18 -6
-24 -17 -7 -11 -23 -35 -36 -53 -19 -27 -21 -36 -11 -45 10 -9 12 -8 7 4 -5
15 -1 15 39 0 l45 -16 54 59 54 60 39 -12 c22 -7 45 -12 53 -12 22 0 -3 16
-49 30 -34 11 -45 11 -51 2 -5 -9 -15 -10 -31 -4 -23 8 -23 8 6 21 24 9 38 9
72 -3 45 -16 58 -7 17 12 -36 17 -76 15 -103 -4z m-19 -82 c-31 -38 -66 -50
-93 -32 -13 8 -13 13 2 37 13 23 26 29 65 33 26 3 50 4 52 3 3 -2 -9 -20 -26
-41z"/>
<path d="M2098 2380 c-27 -38 -30 -40 -72 -36 -42 4 -44 3 -41 -20 1 -14 6
-28 10 -32 4 -4 5 3 2 16 -5 20 -2 22 38 22 38 0 47 4 74 39 17 21 31 42 31
45 0 16 -18 2 -42 -34z"/>
<path d="M2190 2341 c0 -6 13 -11 29 -11 16 0 44 -3 62 -6 27 -4 30 -3 17 5
-26 17 -108 26 -108 12z"/>
<path d="M2215 2230 c-4 -6 17 -10 57 -9 44 0 57 3 43 9 -28 12 -93 12 -100 0z"/>
<path d="M2256 1956 c-3 -13 -9 -31 -12 -40 -3 -9 -2 -16 3 -16 13 0 33 69 23
75 -4 3 -11 -6 -14 -19z"/>
<path d="M2756 1952 c-10 -19 -15 -36 -13 -39 9 -8 39 45 35 59 -3 7 -12 -2
-22 -20z"/>
<path d="M2867 1938 c-15 -11 -27 -27 -27 -37 0 -9 -7 -26 -15 -37 -16 -22
-20 -38 -6 -29 5 3 12 1 15 -4 9 -14 64 -21 88 -11 27 10 19 12 -41 10 -32 -1
-41 2 -36 11 5 8 4 10 -3 5 -18 -11 -14 10 3 24 9 7 14 19 11 26 -3 7 7 22 22
33 15 11 25 22 22 24 -3 3 -17 -4 -33 -15z"/>
<path d="M2810 1812 c0 -12 47 -32 73 -31 20 1 20 1 -4 8 -14 5 -35 14 -47 20
-12 6 -22 8 -22 3z"/>
<path d="M2809 1770 c13 -11 33 -20 44 -20 15 0 11 5 -18 20 -49 25 -57 25
-26 0z"/>
<path d="M284 1340 c0 -179 2 -252 3 -162 2 89 2 235 0 325 -1 89 -3 16 -3
-163z"/>
<path d="M284 780 c0 -102 2 -143 3 -92 2 50 2 134 0 185 -1 50 -3 9 -3 -93z"/>
<path d="M317 833 c-10 -98 -8 -186 3 -203 7 -10 10 32 10 128 0 78 -2 142 -4
142 -2 0 -6 -30 -9 -67z"/>
<path d="M1545 1207 c-22 -5 -87 -24 -145 -43 -58 -18 -122 -35 -142 -39 -21
-4 -38 -12 -38 -17 0 -13 46 -4 145 28 44 14 120 35 170 45 92 21 134 40 80
38 -17 -1 -48 -6 -70 -12z"/>
<path d="M1490 1138 c-41 -11 -94 -25 -117 -31 -24 -6 -43 -15 -43 -19 0 -13
24 -9 104 17 42 14 94 28 116 31 22 4 43 11 46 15 8 13 -23 10 -106 -13z"/>
<path d="M540 1320 c0 -35 3 -60 7 -56 7 7 5 108 -3 115 -2 2 -4 -24 -4 -59z"/>
<path d="M523 1305 c0 -33 2 -45 4 -27 2 18 2 45 0 60 -2 15 -4 0 -4 -33z"/>
<path d="M1915 2960 c-21 -22 -36 -42 -34 -45 3 -2 25 16 49 40 24 25 40 45
34 45 -5 0 -27 -18 -49 -40z"/>
<path d="M2423 1493 c-28 -11 -11 -21 27 -16 27 4 47 0 65 -11 14 -9 25 -12
25 -7 0 27 -79 50 -117 34z"/>
<path d="M220 1258 c0 -127 2 -229 4 -227 3 3 6 80 7 171 1 92 6 165 11 162 4
-3 3 7 -4 21 -8 19 -9 28 -1 33 15 10 11 72 -4 72 -10 0 -13 -53 -13 -232z"/>
<path d="M2295 1423 c-95 -39 -165 -108 -165 -161 0 -13 7 -36 15 -53 15 -28
15 -31 -5 -56 -25 -32 -25 -57 0 -93 l20 -28 -33 -21 c-32 -20 -32 -20 -35 0
-5 27 -46 53 -75 45 -32 -8 -71 -40 -98 -79 -19 -27 -14 -25 27 14 27 26 59
49 71 52 29 7 65 -20 58 -43 -10 -30 18 -29 64 4 48 34 62 55 35 52 -28 -2
-27 21 5 56 28 31 31 32 62 21 18 -7 35 -10 38 -8 9 9 -14 24 -46 31 -32 6
-58 -10 -81 -52 -14 -26 -24 -12 -16 21 4 18 17 32 34 38 27 10 27 11 9 26
-29 24 -39 72 -23 109 22 53 131 119 197 121 55 2 139 -52 142 -90 1 -13 8
-24 16 -25 32 -2 37 -5 43 -19 8 -21 -3 -45 -22 -45 -12 0 -13 -3 -4 -12 17
-17 42 8 42 41 0 31 -16 51 -41 51 -10 0 -19 11 -22 28 -4 18 -20 36 -49 54
-57 35 -112 43 -163 21z"/>
<path d="M243 1130 c0 -47 2 -66 4 -42 2 23 2 61 0 85 -2 23 -4 4 -4 -43z"/>
<path d="M185 820 c0 -201 1 -283 2 -183 2 101 2 265 0 365 -1 101 -2 19 -2
-182z"/>
<path d="M244 900 c0 -52 1 -74 3 -47 2 26 2 68 0 95 -2 26 -3 4 -3 -48z"/>
<path d="M220 785 c0 -76 3 -136 6 -132 7 7 7 258 -1 265 -3 3 -5 -57 -5 -133z"/>
<path d="M150 766 c0 -8 -6 -17 -12 -19 -10 -4 -9 -8 2 -17 11 -9 12 -13 3
-17 -7 -2 -13 -9 -13 -14 0 -6 5 -7 10 -4 6 3 10 0 10 -9 0 -8 -4 -16 -10 -18
-6 -2 -7 -24 -1 -63 5 -33 9 -47 10 -30 1 23 3 27 11 15 7 -10 10 8 10 62 0
51 -4 78 -12 82 -10 5 -10 7 0 12 14 7 16 34 2 34 -5 0 -10 -6 -10 -14z"/>
<path d="M1670 524 c-19 -7 -44 -13 -55 -13 -11 -1 -30 -8 -41 -16 -12 -8 -24
-11 -28 -8 -7 7 -9 -10 -6 -44 1 -13 -3 -23 -9 -23 -6 0 -11 -5 -11 -10 0 -6
11 -3 25 6 15 10 37 14 55 12 17 -3 33 -1 36 4 3 4 14 8 25 8 23 0 24 6 3 27
-13 14 -17 14 -25 2 -5 -8 -9 -20 -9 -27 0 -7 -4 -11 -10 -7 -5 3 -7 13 -4 23
5 13 4 14 -4 3 -5 -7 -15 -10 -22 -6 -7 4 -16 2 -21 -6 -4 -7 -11 -10 -15 -7
-9 10 24 41 36 33 5 -3 10 -1 10 5 0 7 7 9 17 6 9 -4 20 -1 24 6 6 9 13 7 27
-10 10 -12 23 -18 27 -14 5 4 5 -1 2 -10 -4 -10 -2 -18 3 -18 6 0 10 4 10 8 0
5 9 18 19 29 18 19 18 23 5 42 -17 24 -16 24 -64 5z m60 -10 c0 -3 -7 -12 -15
-20 -19 -19 -40 -9 -22 11 12 14 37 20 37 9z"/>
<path d="M972 421 c-10 -6 -10 -10 3 -21 18 -15 42 0 31 19 -8 13 -16 14 -34
2z"/>
<path d="M80 359 c0 -29 -6 -47 -20 -59 -18 -15 -18 -19 -5 -24 11 -4 14 -2 9
7 -5 8 -4 9 4 2 7 -7 13 -64 15 -150 2 -119 3 -109 5 63 1 111 0 202 -3 202
-3 0 -5 -19 -5 -41z"/>
<path d="M914 355 c2 -11 7 -31 13 -44 10 -24 10 -24 15 -3 4 12 3 22 -1 22
-5 0 -13 10 -19 23 -10 19 -11 19 -8 2z"/>
<path d="M954 345 c17 -13 18 -18 6 -40 -13 -23 -11 -28 19 -57 25 -24 34 -29
44 -19 9 10 8 11 -5 6 -20 -8 -37 33 -18 45 9 5 9 9 1 14 -6 4 -9 12 -6 17 4
5 2 9 -3 9 -5 0 -12 9 -15 20 -3 11 -13 20 -24 20 -17 -1 -17 -1 1 -15z"/>
<path d="M51 244 c-12 -14 -12 -18 0 -26 11 -7 11 -11 2 -15 -15 -5 -18 -33
-3 -33 5 0 11 -26 13 -57 2 -37 4 -20 5 45 1 56 1 102 0 102 -2 -1 -9 -8 -17
-16z"/>
<path d="M1870 235 c-15 -18 -7 -45 13 -45 8 0 20 6 26 13 8 11 6 18 -8 31
-16 15 -20 15 -31 1z"/>
<path d="M1793 202 c-27 -2 -43 -9 -47 -19 -7 -16 12 -36 25 -27 4 2 9 -3 13
-11 8 -21 39 -19 59 5 27 32 4 56 -50 52z"/>
<path d="M1695 180 c-4 -6 1 -10 9 -10 9 0 16 -4 16 -9 0 -5 -16 -9 -35 -8
-37 2 -47 13 -17 19 9 3 -6 4 -35 4 -28 -1 -51 -3 -51 -6 0 -3 -3 -15 -7 -27
-7 -21 -17 -28 -38 -24 -4 1 -15 -5 -23 -14 -18 -17 -24 -18 -44 -5 -8 5 -11
13 -6 17 5 4 11 2 13 -4 5 -15 23 -18 23 -4 0 15 -32 22 -45 11 -9 -8 -15 -8
-20 0 -3 5 -5 10 -3 11 34 9 63 8 70 -3 6 -10 10 -10 18 2 9 13 11 13 20 0 8
-13 10 -12 10 3 0 9 5 17 11 17 6 0 9 5 7 11 -2 6 -8 9 -13 7 -6 -2 -9 -5 -8
-8 1 -3 -34 -4 -78 -3 -47 1 -77 -2 -74 -7 3 -5 1 -19 -5 -30 -10 -18 -8 -20
19 -20 16 0 33 -5 36 -10 9 -14 68 -12 97 3 31 16 58 42 58 56 0 15 31 13 53
-3 9 -7 17 -19 17 -27 0 -11 2 -11 10 1 5 8 10 11 10 6 0 -5 9 -1 20 9 11 10
20 24 20 30 0 16 -27 27 -35 15z"/>
<path d="M1616 135 c4 -8 2 -15 -4 -15 -5 0 -12 -6 -15 -14 -5 -11 0 -12 24
-3 34 13 36 22 9 37 -16 9 -18 8 -14 -5z"/>
<path d="M1853 95 c-26 -18 -92 -43 -137 -51 -37 -7 -59 -12 -66 -14 -3 -1 -8
-2 -12 -2 -3 1 -9 -5 -12 -13 -4 -11 0 -12 20 -5 17 7 32 6 45 0 15 -8 19 -8
17 2 -2 7 3 12 10 10 6 -1 12 3 12 10 0 6 3 8 6 5 4 -4 2 -13 -4 -20 -9 -10
-3 -14 29 -15 28 -2 41 2 45 13 3 8 10 13 14 10 5 -3 15 2 24 11 9 8 20 13 25
10 5 -3 14 1 21 9 17 20 -5 20 -40 0 -30 -17 -50 -19 -50 -5 0 6 9 10 19 10
11 0 21 5 23 11 2 7 18 12 35 13 24 1 29 4 21 14 -13 16 -19 15 -45 -3z m-60
-51 c7 -7 -17 -34 -31 -34 -5 0 -9 7 -9 15 0 8 4 12 9 9 4 -3 8 0 8 5 0 12 13
15 23 5z"/>
<path d="M2980 35 c0 -19 5 -35 10 -35 6 0 10 16 10 35 0 19 -4 35 -10 35 -5
0 -10 -16 -10 -35z"/>
<path d="M2831 41 c-12 -8 -12 -12 -2 -25 14 -17 61 -22 61 -7 0 5 3 16 6 25
5 12 0 16 -22 16 -16 0 -35 -4 -43 -9z"/>
<path d="M2920 25 c0 -18 5 -25 20 -25 21 0 24 8 14 34 -10 25 -34 19 -34 -9z"/>
</g>
</svg>
